<svg xmlns="http://www.w3.org/2000/svg" version="1.1" viewBox="0 0 124 144" id="svg2" width="124" height="144" xmlns:svg="http://www.w3.org/2000/svg" xmlns:rdf="http://www.w3.org/1999/02/22-rdf-syntax-ns#" xmlns:cc="http://creativecommons.org/ns#" xmlns:dc="http://purl.org/dc/elements/1.1/"><metadata id="metadata159">
    <rdf:rdf>
      <cc:work rdf:about="">
        <dc:format>image/svg+xml</dc:format>
        <dc:type rdf:resource="http://purl.org/dc/dcmitype/StillImage"></dc:type>
      </cc:work>
    </rdf:rdf>
  </metadata><defs id="defs4">
    <style type="text/css" id="style6">
    line, polyline, path, rect, circle {
      fill: none;
      stroke: #000000;
      stroke-linecap: round;
      stroke-linejoin: round;
      stroke-miterlimit: 10.00;
    }
  </style>
  </defs><rect width="100%" height="100%" style="fill:none;stroke:none;stroke-linecap:round;stroke-linejoin:round;stroke-miterlimit:10" id="rect8" x="-0.954" y="-1.3609837"></rect><rect x="-0.954" y="-1.2209691" width="124.44" height="143.71001" style="fill:none;stroke:none;stroke-width:1.07;stroke-linecap:round;stroke-linejoin:round;stroke-miterlimit:10" clip-path="url(#cpMHwxMjQuNDQxfDE0My44NTd8MC4xNDMxMzc=)" id="rect15"></rect><rect x="-1.094" y="-1.2209691" width="124.58" height="143.85001" style="fill:none;stroke:none;stroke-width:1.07;stroke-linecap:round;stroke-linejoin:round;stroke-miterlimit:10" clip-path="url(#cpMHwxMjQuNDQxfDE0My45OTd8MC4xNDMxMzc=)" id="rect27"></rect><polyline points="2.285 37.429 2.285 106.799 62.105 141.486 121.926 106.799 121.926 37.429 62.105 2.743 2.285 37.429" style="fill:#d5d2ca;fill-opacity:1;fill-rule:nonzero;stroke:none;stroke-width:4;stroke-linecap:round;stroke-linejoin:round;stroke-miterlimit:10;stroke-opacity:0.99005" clip-path="url(#cpMHwxMjQuNDQxfDE0My45OTd8MC4xNDMxMzc=)" id="polyline29" transform="translate(-0.95399999,-1.3609688)"></polyline><polyline transform="translate(0,-3.1185063e-5)" points="2.285 37.429 2.285 106.799 62.105 141.486 121.926 106.799 121.926 37.429 62.105 2.743 2.285 37.429" style="fill:none;fill-opacity:1;fill-rule:nonzero;stroke:#008a00;stroke-width:4;stroke-linecap:round;stroke-linejoin:round;stroke-miterlimit:10;stroke-opacity:0.99005" clip-path="url(#cpMHwxMjQuNDQxfDE0My45OTd8MC4xNDMxMzc=)" id="polyline29-34-3"></polyline><path id="path4417" style="fill:#ffffff;stroke:none;stroke-width:0.0296767;stroke-linejoin:round;stroke-miterlimit:10;stroke-opacity:0.99005;stop-color:#000000" d="m 13.134766,36.400391 c -0.25026,-5.3e-5 -0.8125,-2.76e-4 -0.8125,0.453125 0,0.229142 0.332976,0.577153 0.615234,0.878906 0.494942,0.529135 0.771484,1.248419 0.771484,2.033203 0,0.249362 -0.08143,1.093437 -0.183593,1.84375 -0.155625,1.143004 -0.166453,1.626161 -0.05664,2.482422 0.17,1.325585 0.484369,2.513207 1.080078,2.625 0.177018,0.03322 0.199219,0.04948 0.199219,0.271484 0,0.243114 -0.414033,0.924934 -0.796875,1.175781 -0.459753,0.301241 -1.328924,2.353027 -1.769531,3.876954 -0.467247,1.616049 -0.589841,2.792782 -0.515625,4.832031 0.103928,2.855574 0.356347,3.962626 1.607422,7.046875 0.436255,1.075496 0.857637,2.19042 0.923828,2.423828 0.06881,0.24268 0.130529,1.362745 0.136718,3.230469 0.01055,3.157808 0.07145,3.64044 0.810547,4.503906 0.650665,0.760159 1.288695,0.846045 3.958985,0.904297 2.994132,0.06531 3.125899,0.0818 4.80664,0.660156 1.86941,0.643283 3.043311,0.974572 3.939453,1.105469 1.121313,0.163786 1.583276,0.143115 2.185547,-0.148438 1.232083,-0.596443 2.137389,-2.361187 2.935547,-5.371093 0.872958,-3.291975 1.137268,-4.628142 1.353516,-6.873047 0.242152,-2.513873 0.710676,-4.394148 1.349609,-5.523438 0.242072,-0.427846 0.386719,-0.855291 0.386719,-1.259765 0,-0.700734 0.236935,-1.304339 0.341797,-1.373047 0.07895,-0.05172 0.28888,-0.09504 0.65625,-0.08008 1.007338,0.04101 1.700899,-0.360337 3.246094,-1.683594 1.652711,-1.415338 2.444464,-2.201982 2.185546,-2.900391 -0.07684,-0.207276 -0.234303,-0.350905 -0.40039,-0.455078 -0.501565,-0.314586 -3.542447,-0.63221 -4.539064,-0.537107 -0.466081,0.04448 -1.568621,0.228225 -2.46289,0.408203 C 32.8014,51.411336 32.316983,51.446196 31.375,51.248047 28.72167,50.689898 25.897283,49.259396 23.822266,47.419922 22.57017,46.309956 21.001563,45.538427 19.71875,45.441406 18.914208,45.380559 19.02438,45.398681 18.84375,45.125 18.511222,44.621181 18.330904,44.099312 18.035156,42.636719 17.618452,40.575918 16.612278,38.380704 15.642578,37.529297 15.022384,36.984758 13.788044,36.400528 13.134766,36.400391 Z m 94.433594,13.767578 c -0.42391,-0.01953 -0.89693,-0.01399 -1.44922,0.0059 -2.02658,0.07285 -2.91693,0.305029 -4.16797,1.119141 -1.00531,0.65421 -2.238439,1.15427 -3.468748,1.408203 -0.846567,0.17473 -1.524337,0.20804 -4.833984,0.210937 l -3.908204,0.0059 -1.888672,0.416015 c -4.695193,1.039276 -6.102231,1.171941 -12.564453,1.195313 -1.559801,0.0056 -3.412586,0.05978 -4.128906,0.119141 -2.581733,0.213936 -9.338205,0.572537 -12.914062,0.685546 -7.680349,0.242719 -8.550874,0.380803 -11.582032,1.822266 -2.546217,1.210848 -4.013229,2.270538 -4.601562,3.435547 -0.55359,1.096205 -0.97435,3.281706 -0.730469,4.095703 0.187133,0.624593 0.075,1.978398 -0.21289,2.572266 l -0.31836,0.654296 0.15625,2.423829 c 0.08267,1.27414 0.163247,2.882006 0.177734,3.572265 0.02291,1.091616 0.09368,1.524497 0.402344,2.425782 0.193134,0.563939 0.45837,1.458015 0.589844,1.988281 0.678017,2.734614 1.337651,4.190507 2.519531,5.423828 0.409492,0.427315 1.083437,1.294392 1.496094,1.925781 0.426002,0.651803 0.916872,1.318942 1.173828,1.535156 0.619243,0.521057 3.461156,2.080741 4.945313,2.75 3.185603,1.436508 5.713243,2.169826 11.349609,3.296875 3.570047,0.71387 5.211269,0.983459 7.138672,1.169922 1.370263,0.132563 7.567755,0.05324 9.580078,-0.115234 2.457981,-0.205784 4.466585,-0.646657 6.025391,-1.335938 1.923372,-0.850484 6.063927,-3.422114 8.144531,-5.052734 0.475865,-0.372947 1.560117,-1.383327 2.421875,-2.251953 1.931376,-1.94677 2.345903,-2.644454 2.947266,-5.013672 0.361742,-1.425173 0.421852,-1.904595 0.523432,-4.080078 0.0809,-1.732021 0.23655,-3.233058 0.56055,-5.388672 0.24889,-1.655584 0.5323,-3.923813 0.62891,-5.044922 0.16806,-1.950466 0.8304,-6.448453 1.16211,-7.908203 0.33372,-1.468601 0.80149,-2.176267 2.09179,-3.132813 1.46718,-1.087683 2.82855,-1.493268 4.67383,-1.394531 2.47692,0.132533 4.47046,1.271769 5.31836,2.947266 0.7048,1.392718 0.67483,4.837209 -0.12305,7.236328 -0.28818,0.866564 -0.41601,1.463247 -0.41601,2.033203 0,1.298731 -0.43172,2.093863 -1.42773,2.689453 -0.77917,0.465938 -1.0289,1.149854 -0.95508,2.25586 0.0333,0.498919 0.17247,1.238309 0.31445,1.642578 0.23481,0.668602 0.38935,1.71409 0.51563,3.638672 0.0386,0.589049 0.0944,1.126082 0.17968,1.304687 0.0186,0.03906 0.12181,0.232422 0.35547,0.232422 0.18344,0 0.29927,-0.12562 0.33789,-0.166016 0.3476,-0.36356 1.24596,-1.814653 1.66797,-2.658203 1.49595,-2.990231 1.6119,-3.740118 0.80469,-6.070312 -0.46825,-1.351741 -0.4583,-1.302062 -0.34961,-1.982422 0.0605,-0.378886 0.33769,-1.325624 0.61914,-2.082031 0.5504,-1.479224 0.80097,-2.697829 1.00781,-4.88086 0.24995,-2.637931 -0.18757,-4.038866 -1.83594,-5.677734 -0.98598,-0.980316 -2.28938,-1.837376 -4.45117,-2.949219 -1.36587,-0.702506 -2.20184,-0.992851 -3.50195,-1.052734 z M 37.597656,61.964844 c -0.584092,0.0092 -1.371094,0.216403 -1.371094,0.808594 0,0.451063 1.044891,0.982076 1.648438,1.193359 0.305775,0.107041 0.785642,0.199613 1.064453,0.203125 0.524182,0.0067 0.816406,-0.101336 0.816406,-0.667969 0,-0.641383 -0.735815,-1.26418 -1.4375,-1.453125 -0.235637,-0.06345 -0.485322,-0.08769 -0.720703,-0.08398 z m 61.228516,23.203125 c -0.08587,0.0064 -0.164174,0.02213 -0.236328,0.04492 -0.398323,0.125792 -2.303409,2.094069 -2.580078,2.576171 -0.475641,0.828815 -0.171259,1.163721 1.923828,3.226563 1.133454,1.116009 2.188616,2.274821 2.400386,2.605469 0.78882,1.231587 2.99626,3.933626 3.98047,4.86914 0.51671,0.491126 1.24187,1.052254 1.63477,1.248047 0.34525,0.172039 0.73851,0.351561 0.8789,0.351561 0.67312,0 2.47607,-1.561716 3.23438,-2.591795 1.03373,-1.404217 1.41193,-3.188853 0.79883,-4.390625 -0.33797,-0.662464 -1.01791,-1.332263 -1.76758,-1.763672 -0.26946,-0.155063 -1.47469,-0.929518 -2.64844,-1.705078 -1.17753,-0.778054 -2.81783,-1.821524 -3.64453,-2.31836 -0.81732,-0.491196 -1.7828,-1.112502 -2.13672,-1.373046 -0.696403,-0.512674 -1.322557,-0.817731 -1.837888,-0.779297 z m -55.69336,1.46289 c -0.617261,0 -1.363284,0.56068 -1.363281,1.179688 0,0 -0.44977,0.813657 -0.455078,0.822265 -0.966073,1.566927 -2.193393,3.07131 -5.144531,6.294922 -0.834313,0.911343 -1.798589,2.036934 -2.150391,2.513672 -0.336314,0.455746 -0.853379,1.137491 -1.15039,1.515625 -2.479439,3.156649 -3.388688,4.594259 -3.888672,6.226559 -0.34789,1.13579 -0.336853,1.70457 0.132812,2.52344 0.459394,0.80097 0.945502,1.17536 2.800781,2.22852 1.997018,1.13362 2.764076,1.50545 3.964844,1.91211 0.557577,0.18882 1.109967,0.36131 1.302735,0.36328 0.27767,0.004 0.659452,-0.32473 0.927734,-0.60352 1.105422,-1.14878 1.872214,-2.41273 2.267578,-3.76562 1.043186,-3.56969 2.486099,-6.84466 5.625,-12.744144 0.878644,-1.651389 1.676302,-3.155149 1.779297,-3.353515 0.334138,-0.643528 0.300641,-1.440513 -0.164062,-1.935547 -0.20968,-0.223367 -0.798994,-0.632427 -1.347657,-0.962891 -0.538366,-0.324262 -1.257193,-0.888091 -1.677734,-1.316406 -0.685279,-0.697942 -0.95395,-0.898438 -1.458985,-0.898438 z m 10.4375,5.966797 c -0.24103,0.004 -0.415255,0.07434 -0.615234,0.169922 -0.968943,0.463137 -1.244199,1.531723 -1.599609,4.824219 -0.08919,0.826284 -0.265919,1.585633 -0.617188,2.632813 -0.30045,0.8957 -0.690288,2.45173 -0.9375,3.74609 -0.574306,3.00698 -0.730888,3.599 -1.777343,6.70508 -1.309803,3.8877 -1.544765,5.02748 -1.009766,6.07617 0.321505,0.6302 1.179193,1.23703 1.957031,1.45313 0.290078,0.0805 0.988121,0.13343 1.601563,0.14258 0.596806,0.009 1.467524,0.0537 1.933593,0.0977 1.501179,0.14162 2.67009,0.18555 2.957032,-0.16211 0.308194,-0.37342 0.458959,-3.1404 0.458984,-5.73242 1.7e-5,-1.83993 0.05207,-2.68032 0.228516,-3.76172 0.130835,-0.80188 0.259954,-2.14855 0.289062,-2.99218 0.02847,-0.82492 0.107867,-1.87977 0.171875,-2.3379 0.07333,-0.52488 0.195294,-2.77207 0.285156,-5.060542 0.15465,-3.938288 0.170372,-4.283358 -0.109375,-4.679688 -0.312037,-0.44207 -0.995508,-0.666299 -2.427734,-0.998047 -0.345302,-0.07998 -0.5987,-0.126232 -0.789063,-0.123047 z m 28.337891,2.865235 c -0.322609,-0.01092 -0.743237,0.04614 -1.228515,0.130859 -0.704939,0.123073 -1.324148,0.152327 -2.369141,0.09766 -1.405179,-0.07351 -1.593839,-0.06848 -2.080078,0.263672 -0.250819,0.171335 -0.562204,0.488638 -0.673828,0.720703 -0.105895,0.220148 -0.259425,1.438414 -0.357422,2.671875 -0.09758,1.2282 -0.250947,2.66749 -0.337891,3.1875 -0.255539,1.52838 -0.35754,9.49822 -0.121094,10.49023 0.08869,0.37209 0.244669,1.18308 0.34375,1.79883 0.260189,1.61693 0.629769,2.39923 1.558594,2.68555 0.216428,0.0667 0.565401,0.0934 0.767578,0.0371 0.05378,-0.015 1.466939,-0.0894 3.085938,-0.13672 3.501436,-0.10223 4.141415,-0.18891 4.796875,-1.09375 0.617949,-0.85306 0.62026,-1.53075 0.253906,-3.53907 -0.225343,-1.23532 -0.334505,-2.32858 -0.416016,-4.21875 -0.130487,-3.02594 -0.128383,-3.00978 -0.693359,-5.97265 -0.241917,-1.26869 -0.585543,-3.160468 -0.763672,-4.20117 -0.343237,-2.005343 -0.574121,-2.88155 -1.765625,-2.921875 z"></path><path id="path5074" style="fill:#008a00;fill-opacity:0.992157;stroke:none;stroke-width:0.0296767;stroke-linejoin:round;stroke-miterlimit:10;stroke-opacity:0.99005;stop-color:#000000" d="m 12.376953,69.791016 c -0.122124,-0.001 -0.248571,0.01372 -0.373047,0.03711 -0.611387,0.114696 -2.9151142,1.277878 -3.4179685,1.716797 -0.4723619,0.412211 -0.9071529,1.249793 0.25,0.871094 0.048265,-0.0158 0.9173979,-0.209846 1.8046875,-0.386719 0.423766,-0.08447 0.577764,-0.156444 0.894531,-0.230469 -0.252314,0.179014 -0.495394,0.438108 -0.804687,0.833984 -0.594723,0.761208 -1.871094,2.731388 -1.871094,3.082032 0,0.982799 1.0542631,0.190155 1.884766,-0.478516 0.310527,-0.250016 0.642218,-0.412325 1.126953,-0.708984 -0.05561,0.28772 -0.06527,0.600484 0.01367,1.070312 l 0.371093,2.216797 0.6875,-1.785156 c 0.09487,-0.246993 0.388422,-0.859641 0.650391,-1.351563 0.268794,-0.504739 0.527342,-1.164753 0.527344,-1.425781 0,-0.89064 -0.709097,-1.664382 -1.566406,-1.714844 0.556921,-0.209014 0.873046,-0.453568 0.873046,-0.863281 0,-0.571917 -0.506781,-0.878251 -1.050781,-0.882812 z m 22.408203,1.365234 c -0.626647,0 -0.984375,0.607987 -0.984375,1.25 0,0.340225 0.09927,0.611136 0.25,0.841797 -0.01272,-3.14e-4 -0.02034,-0.01172 -0.0332,-0.01172 -1.009462,0 -2.168875,1.042256 -1.53125,1.810547 0.13217,0.159241 0.655583,0.492981 1.171875,0.792969 1.162187,0.675276 1.764666,1.251082 2.277344,2.128906 0.258053,0.441848 0.67705,0.995169 0.947265,1.232422 0.237402,0.208441 0.69016,0.600856 0.996094,0.294922 0.154061,-0.154061 0.121155,-0.330302 0.111328,-0.392578 -0.06149,-0.389686 -0.717631,-1.665821 -1.394531,-2.767578 -0.377968,-0.6152 -0.817608,-1.408861 -0.974609,-1.751954 C 35.496678,74.3121 35.33789,74.141135 35.1875,73.945312 c 0.267893,0.08498 0.581547,0.186787 0.935547,0.310547 0.487971,0.170598 1.250314,0.356823 1.693359,0.414063 0.41787,0.05399 0.81901,0.108813 0.833985,0.111328 0.312591,0.0525 0.527343,-0.217359 0.527343,-0.462891 0,-0.449088 -0.868377,-1.011946 -1.888672,-1.580078 -0.528689,-0.294391 -1.201491,-0.746579 -1.496093,-0.998047 -0.324972,-0.27739 -0.734102,-0.583984 -1.007813,-0.583984 z m 3.845703,3.826172 c -0.14253,0.0069 -0.288665,0.04545 -0.423828,0.121094 -0.59592,0.333479 -0.249331,0.735226 0.179688,1 0.308975,0.19069 0.62494,0.414041 0.923828,0.205078 0.199258,-0.139309 0.212891,-0.411527 0.212891,-0.556641 0,-0.504592 -0.455487,-0.79063 -0.892579,-0.769531 z"></path><ellipse style="fill:#d0b972;fill-opacity:1;stroke:none;stroke-width:0.257;stroke-linejoin:round;stroke-miterlimit:10;stroke-opacity:0.99005;stop-color:#000000" id="path5191" cx="32.366055" cy="67.980438" rx="8.5580196" ry="4.5511112" transform="rotate(7.6400232)"></ellipse><path d="m 69.38884,94.328787 c -3.097244,-0.342006 -6.146247,-1.001201 -9.199798,-1.604801 1.145275,-1.864051 2.660938,-3.458163 4.031378,-5.152706 1.344041,-1.540831 3.025725,-2.813561 4.969351,-3.488853 2.515916,-0.999681 5.254457,-1.477762 7.583397,-2.916476 0.608513,-0.711252 0.03115,-1.65008 0.0313,-2.461561 -0.619328,-4.460921 -1.446121,-8.925921 -1.395104,-13.445674 0.02008,-0.953507 0.329636,-1.914008 1.016158,-2.597963 1.949284,-2.426715 4.533256,-4.357469 6.010615,-7.148168 0.182986,-0.931094 1.114252,-1.282563 1.953846,-1.32098 3.007921,-0.679732 6.080769,-1.154121 9.172606,-1.081755 2.142289,-0.0254 4.312379,-0.0552 6.400331,-0.591051 1.08333,-0.05414 1.36669,1.424752 0.80181,2.148592 -0.69764,1.222854 -1.83285,2.103747 -2.782684,3.119166 -1.643662,1.614127 -3.232219,3.423838 -3.902144,5.676769 -0.950008,2.570075 -1.46022,5.292161 -1.554873,8.028125 -0.193939,1.640031 -0.556536,3.409713 -1.738088,4.639543 -1.036708,0.925392 -2.336101,1.475331 -3.546902,2.128903 -2.338112,1.138632 -4.848596,1.853688 -7.26191,2.801241 -0.721363,0.310653 -1.689945,0.750977 -1.647559,1.679329 0.109457,1.073379 0.775361,1.969914 1.19747,2.934729 0.92446,1.774678 2.295559,3.421376 4.19664,4.181022 1.403057,0.625871 2.935133,0.885563 4.454575,1.033898 0.947452,0.504419 -0.415319,1.136573 -0.91007,1.328652 -2.624886,1.370887 -5.584982,1.942525 -8.522271,2.080909 -3.111172,0.195049 -6.248183,0.288888 -9.358098,0.02914 z M 47.556425,87.891548 c -1.595168,-0.999983 -2.424842,-2.771674 -3.72189,-4.079391 -1.350386,-1.668634 -2.121326,-3.752526 -2.423126,-5.862501 0.18633,-0.867011 1.33245,-0.536847 1.983473,-0.636906 1.823259,-0.106465 3.744517,-0.403125 5.495956,0.264461 1.027053,0.625987 1.126123,1.972615 1.045262,3.054992 -0.05969,2.159639 -0.361868,4.304229 -0.694035,6.433814 0.134456,0.922884 -0.760469,1.857635 -1.470392,0.930394 l -0.105494,-0.05673 z m 4.390663,-20.164642 c -2.33218,-1.460246 -4.337055,-3.40805 -6.0389,-5.558672 -0.673555,-0.923796 -1.007566,-2.274067 -0.279453,-3.266721 0.504971,-0.802321 1.297911,-1.407102 1.665743,-2.297942 0.831408,-0.426542 1.808421,-0.237498 2.695296,-0.458162 7.658546,-0.861097 15.390363,-0.685201 23.052995,-1.493527 0.166311,0.393968 -0.135795,1.278912 -0.167495,1.877982 -0.204304,1.462621 -0.673523,3.012973 -1.898912,3.942322 -1.698427,1.408196 -3.843178,2.068919 -5.791361,3.040967 -2.59616,1.186154 -5.070149,2.615383 -7.60021,3.93016 -1.657896,0.81558 -3.715156,1.300214 -5.435405,0.386363 l -0.101569,-0.05056 z M 115.5835,64.945802 c -0.20329,-2.401317 0.034,-4.810074 0.1556,-7.208491 -0.11953,-0.668285 0.83833,-1.700059 1.19404,-0.778044 0.13089,0.819138 -0.0934,1.644843 -0.0709,2.469751 -0.12803,1.865761 -0.29196,3.785241 -1.02929,5.521107 -0.0582,0.07398 -0.20267,0.10403 -0.24969,-0.0042 z M 73.689704,54.513835 c 0.365261,-0.387772 0.743609,0.406229 0.158567,0.195301 -0.137981,0.04647 -0.496376,-0.137097 -0.158567,-0.195301 z" style="fill:#005172;fill-opacity:1;stroke:#005172;stroke-width:0.324818;stroke-linecap:round;stroke-linejoin:round;stroke-miterlimit:10;stroke-opacity:1" id="path12352"></path><path style="fill:#000000;stroke-width:0.0698796" d="m 52.807575,119.77892 c -1.975115,-0.23301 -4.193775,-0.0857 -5.86582,-1.33234 -1.252817,-1.12511 -1.648213,-3.00563 -1.068156,-4.56893 0.72856,-3.13062 1.429749,-6.27335 1.804503,-9.46911 0.629423,-3.46216 2.418274,-6.607514 2.888884,-10.107702 0.866316,-1.125613 1.070158,-3.055987 -0.784064,-3.137138 -1.281165,-0.0785 -1.35419,1.594361 -1.969389,2.385064 -1.516047,2.772331 -2.533709,5.77882 -3.446198,8.790196 -0.709701,1.44884 -1.521414,2.85409 -1.961622,4.41705 -0.594084,1.39389 -1.129833,2.80974 -1.62098,4.24088 -0.548083,1.33677 -1.608345,2.92948 -3.245383,2.80336 -1.85198,-0.16369 -3.578266,-0.98233 -5.22733,-1.7883 -1.568505,-0.88085 -3.221136,-1.7641 -4.423311,-3.12641 -1.352468,-1.76627 -1.340429,-4.35921 -0.03418,-6.14763 1.792426,-3.056215 4.312316,-5.606032 6.116465,-8.657142 1.815424,-2.733145 3.649524,-5.45721 5.545684,-8.133551 1.252853,-0.965192 2.339748,-2.445299 1.298494,-4.027217 -1.001625,-1.526608 -0.512563,-3.673178 -1.884586,-5.000057 -1.116242,-0.474397 -1.673046,-1.657441 -2.690911,-2.258653 -0.558821,1.390546 2.237111,1.794566 1.559288,2.884938 0.449487,0.647796 0.924657,1.273264 0.92289,2.004826 0.651727,0.907938 0.145077,1.207005 -0.618413,0.734588 -0.247858,0.725339 -0.530414,0.849405 -0.620746,-0.0042 -0.610949,-1.215624 -1.416204,-2.357921 -2.292061,-3.392006 -1.025292,-0.963608 -2.990828,-2.10673 -4.001612,-0.505685 -0.6526,1.143082 -1.854147,1.62177 -3.123665,1.374146 -2.244684,-0.04102 -4.294001,-1.040092 -6.338444,-1.837829 -1.751405,-0.527913 -3.584986,-0.117101 -5.365795,-0.265953 -1.142344,0.01544 -2.433321,-1.858623 -2.905567,0.01419 -0.06979,0.55158 -0.528005,2.626033 -1.074728,1.687465 -0.08697,-1.302236 0.823172,-2.403661 1.330136,-3.530318 0.680747,-1.564283 -1.398708,-2.889344 -2.402021,-1.459058 -0.916526,1.046458 -1.718842,2.328321 -2.260929,3.561959 0.908014,-0.09237 1.759626,-1.394823 2.774087,-1.773469 0.54983,-0.357056 1.991062,-1.140119 0.740734,-0.270601 -1.261773,0.844989 0.360385,2.339249 -0.575775,3.168127 0.437256,-1.085661 -1.000339,-2.635188 -1.689096,-1.182136 -0.937966,0.525444 -2.222173,1.898492 -2.901942,1.980046 0.761995,-1.542404 1.131668,-3.39594 2.516095,-4.532435 0.677275,-0.452401 0.938603,-1.717288 -0.230168,-0.961839 -1.035062,0.380501 -2.819767,1.483461 -3.388044,1.443707 1.739194,-1.440186 3.044361,-3.661546 5.440511,-4.074002 1.926486,-0.170384 1.737458,-2.176365 1.304746,-3.530834 -0.602058,-2.180451 -1.64333,-4.242877 -1.853929,-6.523954 -0.612812,-3.944056 -0.424819,-8.174857 1.450247,-11.773867 -1.325718,-2.024689 -0.784714,-4.573267 -0.08816,-6.717539 0.575129,-1.449364 0.03402,-2.94828 -1.166124,-3.833849 -0.493126,-1.898034 1.977454,-1.523412 3.062,-1.111121 2.134642,0.25393 3.883869,1.945518 4.395557,4.001333 0.520883,1.200293 -0.103014,2.626585 0.645191,3.723987 1.02938,1.312201 2.829433,0.624769 4.19608,1.199027 1.715829,0.476819 3.191608,1.589544 4.260946,2.994294 1.182087,1.110463 2.806484,1.522586 4.282717,2.079262 1.765011,0.281758 3.437335,-0.619238 5.197079,-0.593347 2.439946,-0.163601 4.952607,0.06298 7.248017,0.935521 0.800741,1.083235 -1.514092,1.258482 -1.659049,2.364736 -0.642801,1.281121 -1.859777,2.011097 -2.941034,2.868142 -0.828117,0.619644 -1.820668,1.144709 -2.88622,1.067124 -0.639761,1.373479 -0.10715,3.407471 1.49643,3.794793 1.357056,0.931921 1.988668,-0.862355 2.327226,-1.822108 1.180394,-1.543525 3.211241,-1.945728 4.770634,-2.979227 2.025736,-1.125147 4.289901,-1.882407 6.627332,-1.841527 2.978629,-0.168677 5.965527,-0.353252 8.90483,-0.884465 4.000318,-0.309796 8.00919,-0.510357 12.018688,-0.632228 5.007249,0.07452 9.995374,-0.520245 14.98327,-0.887973 2.967477,-0.275437 5.948603,-0.338957 8.920249,-0.531081 2.10034,-0.154069 4.168357,-0.705677 6.014037,-1.728034 1.78846,-0.666746 3.75299,-0.705941 5.63512,-0.594856 1.49385,0.151303 2.6704,1.149196 4.0007,1.744845 1.10721,0.537149 1.9942,1.392419 2.80361,2.295297 1.23236,1.272787 2.26189,2.812787 2.77864,4.51346 0.32005,1.522785 -0.40509,2.967492 -0.97239,4.325658 -0.44047,1.646993 -0.17452,3.404508 -0.71378,5.032081 0.0382,1.408967 1.4701,2.51096 0.91664,4.005741 -0.36166,3.521426 -2.49945,6.541468 -4.77812,9.122108 -0.53306,0.888004 -2.92696,1.622099 -1.73158,0.03557 0.83405,-1.198653 0.2875,-2.722503 -0.15077,-3.965352 -0.90572,-2.064902 -1.59955,-4.464763 -0.67354,-6.653113 0.35905,-1.686906 1.6821,-2.729335 2.88993,-3.826032 0.009,-1.813365 0.21466,-3.62268 0.26679,-5.429097 0.0129,-1.577877 0.0255,-3.518149 -1.46863,-4.484416 -1.33251,-0.952043 -3.0744,-0.647479 -4.54537,-0.240763 -1.23365,0.360606 -2.11589,1.365952 -2.63929,2.499962 -0.85347,1.53533 -1.41834,3.28246 -1.24046,5.054842 0.0467,2.164075 -0.5846,4.252489 -0.8252,6.383205 -0.0146,1.1152 0.25684,2.234883 -0.17792,3.315292 -0.286,0.957501 -0.4694,1.973032 -0.24924,2.960148 -0.008,2.188761 0.79054,4.553457 -0.36065,6.588099 -0.2599,1.048537 -2.868297,2.21874 -1.1146,3.035602 1.49633,0.254163 2.56911,1.326639 3.89999,1.973929 1.7172,0.937864 3.27775,2.124625 4.91416,3.183629 1.26063,0.641002 2.91529,1.254285 3.17016,2.847902 0.32455,1.675366 -0.68474,3.274576 -1.91308,4.31171 -0.84273,1.268878 -1.12887,2.805063 -1.89029,4.115753 -1.2419,1.17195 -3.05249,0.30355 -4.29007,-0.42611 -3.17788,-1.92975 -5.005557,-5.284019 -7.210537,-8.148189 -0.88997,-1.066854 -1.90768,-2.016407 -2.84403,-3.040912 -1.475974,-0.256201 -2.141477,1.38179 -3.243488,2.005822 -1.266242,0.591992 -2.476002,1.33112 -3.709062,2.003768 -0.796508,0.683795 -2.058273,0.45008 -2.669222,1.447246 -0.855717,1.064541 -0.01972,2.330835 -0.124588,3.529013 0.106548,1.382932 0.65098,2.665992 1.156861,3.933102 0.859893,3.17709 0.673674,6.5172 1.372471,9.72585 0.284947,1.49674 0.114992,3.1521 -0.662115,4.4714 -0.791857,1.09074 -2.279737,0.93927 -3.464419,1.18432 -1.786604,0.24949 -3.592938,-0.0954 -5.372345,0.22201 -1.629557,0.26016 -3.619481,-0.66124 -3.801344,-2.45673 -0.73436,-4.32281 0.08393,-8.70858 -0.315757,-13.05269 -0.04552,-1.94643 -0.0015,-3.897329 0.198493,-5.834921 -0.774975,-1.511522 -2.658282,-0.502509 -3.929912,-0.893339 -3.782268,-0.287056 -7.48038,-1.146717 -11.171615,-1.967195 -1.356318,-0.674841 -2.448291,0.609752 -1.806995,1.905757 0.372934,1.156458 0.283897,2.377264 0.630566,3.542733 0.337016,1.342615 0.412065,2.746065 0.09558,4.096625 -0.120486,2.03294 0.299397,4.12995 -0.406284,6.0983 -0.371143,1.35996 -0.637904,2.79652 -0.329942,4.19496 0.02996,1.50737 0.384009,3.12418 -0.22234,4.55317 -0.971872,1.21393 -2.731185,1.23924 -4.148345,1.17132 z m 2.543614,-1.8529 c 0.305094,-2.18844 0.2784,-4.41428 0.338286,-6.61308 -0.234763,-1.94539 0.665913,-3.82593 0.428793,-5.77642 0.112035,-2.06693 0.551138,-4.11007 0.463545,-6.18865 0.09255,-1.596472 -0.0453,-3.198989 0.214619,-4.780912 0.003,-1.502563 -2.064914,-1.26709 -3.094662,-1.71762 -1.553688,-0.03138 -1.700429,1.918506 -1.880853,3.070211 -0.128147,1.608409 -0.21358,3.263011 -0.961923,4.729831 -0.768728,2.39922 -0.881222,4.95427 -1.66151,7.35537 -0.64998,2.64363 -2.051886,5.11188 -2.213874,7.86225 0.272631,1.68157 2.195249,2.40688 3.710161,2.17194 1.445281,0.0388 2.883119,0.27949 4.331335,0.21162 l 0.181387,-0.14292 0.14468,-0.18162 z m 22.717961,-0.78834 c 2.116957,-0.24791 4.329754,0.33313 6.377436,-0.41406 1.534001,-0.91063 1.079295,-2.83361 0.732591,-4.25464 -0.552035,-2.75225 -0.14314,-5.58711 -0.733551,-8.33317 -0.509505,-2.43591 -0.915377,-4.88977 -1.343406,-7.340336 -0.312587,-1.777207 -2.459937,-0.777655 -3.645621,-0.720871 -1.218276,-0.02747 -3.160859,-0.656 -3.724187,0.845428 -0.341372,2.081496 -0.210916,4.219189 -0.719025,6.277479 -0.193645,1.85047 0.10174,3.71585 -0.08266,5.56572 -0.07367,1.6031 -0.268371,3.22246 0.2342,4.7842 0.315772,1.21734 0.122087,2.97301 1.37364,3.64496 0.491168,0.18483 1.049395,0.13838 1.530579,-0.0547 z m -40.614186,-5.30266 c 1.436438,-1.29246 2.555894,-2.99964 2.862606,-4.93018 1.49904,-4.62857 3.822728,-8.919311 6.093802,-13.200678 0.433669,-1.247222 2.277492,-2.836504 0.716918,-3.999271 -0.964497,-0.656022 -2.093954,-1.093904 -2.827509,-2.047613 -0.645172,-1.125115 -2.142468,-1.005491 -2.279584,0.372116 -1.196385,2.164715 -2.872871,4.025078 -4.5054,5.870476 -1.350403,1.482633 -2.800502,2.883649 -3.892354,4.578969 -1.714088,2.287031 -3.850741,4.431221 -4.521853,7.305971 -0.492941,1.52649 0.850703,2.82685 2.119052,3.41377 1.884986,1.09603 3.812345,2.28002 5.96963,2.7158 0.09571,0.0152 0.17624,-0.0564 0.264692,-0.0794 z M 107.36319,99.651518 c 1.61105,-1.237071 3.43628,-2.757638 3.49157,-4.964603 0.27236,-1.559471 -1.09731,-2.780105 -2.39484,-3.346414 -2.37706,-1.632176 -4.78331,-3.227474 -7.29183,-4.649996 -0.85522,-0.637649 -2.171217,-1.955499 -3.126437,-0.775575 -0.56133,1.016321 -2.52527,1.767971 -1.74443,3.142456 1.68535,1.623685 3.63757,3.078073 4.762097,5.18965 1.59218,1.8807 2.94488,4.119988 5.14534,5.353453 0.36192,0.148946 0.79029,0.224826 1.15853,0.05106 z M 75.787978,94.218906 c 4.06638,-0.128903 8.417014,-0.08404 12.005873,-2.288996 3.942342,-2.194424 7.851282,-4.727217 10.640092,-8.34005 0.87109,-1.265983 1.0998,-2.817762 1.46264,-4.278011 0.390237,-2.065438 0.0826,-4.183195 0.474197,-6.250911 0.39164,-2.624506 0.88943,-5.240925 0.96328,-7.900599 0.25151,-2.133439 0.69845,-4.239658 0.97785,-6.368401 0.22345,-1.433637 0.8017,-2.907833 2.08266,-3.711439 1.30428,-1.117758 2.98285,-1.791362 4.71652,-1.683034 2.52633,-0.04613 5.35755,1.16865 6.24934,3.6931 0.35275,1.610147 0.28614,3.299489 0.11299,4.931781 -0.15348,1.065564 -0.44974,2.112796 -0.90248,3.090486 0.13468,1.458611 -0.0927,3.265996 -1.70547,3.731262 -1.28202,1.192347 -0.59197,2.9475 -0.12292,4.31667 0.2555,1.476903 0.17788,2.989604 0.44706,4.464765 1.30868,-1.593411 2.20522,-3.493999 2.93283,-5.408018 0.61591,-1.574921 -0.25887,-3.032016 -0.73041,-4.457129 -0.17201,-1.969434 1.21361,-3.627007 1.3725,-5.555442 0.27245,-1.760132 0.56488,-3.595205 0.20346,-5.357384 -0.8837,-2.701991 -3.60051,-4.083583 -5.93941,-5.341172 -1.41226,-0.790707 -3.02125,-1.26299 -4.64877,-1.079901 -1.58442,-0.0132 -3.26842,0.220047 -4.50891,1.295986 -1.53126,0.917174 -3.326517,1.410668 -5.099177,1.513383 -2.15887,0.07924 -4.323294,-0.04424 -6.476368,-0.08055 -2.992241,0.40656 -5.871679,1.51722 -8.920062,1.531624 -4.125855,0.210812 -8.272545,-0.05942 -12.383813,0.434143 -4.176264,0.226915 -8.35012,0.49385 -12.533043,0.558912 -2.071151,0.103277 -4.163906,0.09376 -6.210511,0.442093 -2.475254,0.637124 -4.790342,1.812204 -6.888667,3.252395 -1.407572,1.140712 -1.66087,3.097203 -1.878251,4.791059 0.469566,1.215721 0.399514,2.626586 -0.369095,3.66615 0.0087,1.994466 0.310904,3.97548 0.331116,5.971465 -0.243364,1.662062 0.745333,2.920336 0.96786,4.50192 0.320189,1.352912 0.745612,2.706432 1.388059,3.947111 0.508183,1.072653 1.662353,1.59705 2.187875,2.656769 0.637504,1.104966 1.356582,2.263656 2.587048,2.775542 3.831234,2.354811 8.112113,3.930319 12.526338,4.759602 3.715986,0.74744 7.424174,1.655132 11.230123,1.782318 1.151747,0.05349 2.306217,0.05449 3.457646,-0.0072 z M 37.7834,79.407985 c -0.481884,-1.92034 -1.97978,-3.356586 -2.652345,-5.195548 -0.752413,-1.648245 -3.862079,0.06156 -1.911677,1.069933 1.225944,0.583391 2.497822,1.370926 3.016714,2.690659 0.38052,0.594139 0.844989,1.211838 1.547308,1.434956 z m -8.525349,-2.839271 c 1.655533,-0.292406 2.268528,-2.064382 2.886075,-3.402742 0.792343,-3.007303 1.748757,-6.001653 1.903693,-9.1304 0.222821,-2.027066 0.542387,-4.150816 1.691467,-5.87927 0.08812,-1.062733 -0.09589,-2.873953 1.565444,-2.246966 1.380858,-0.191087 2.350908,-1.365926 3.405443,-2.175763 0.768352,-0.668949 2.671368,-2.214373 0.704283,-2.61598 -1.412049,-0.08811 -2.790891,-0.507757 -4.211564,-0.238502 -1.813647,0.155429 -3.570726,0.922653 -5.403292,0.758151 -3.231164,-0.593016 -6.271221,-2.151363 -8.634453,-4.436661 -1.236263,-0.828423 -2.66177,-1.718009 -4.218427,-1.455841 -1.332958,-1.440219 -0.968695,-3.59288 -1.838886,-5.259809 -0.55034,-1.493918 -1.429501,-3.094185 -3.069488,-3.568453 -0.552493,-0.382976 -2.200162,-0.415473 -1.03731,0.459015 1.392481,1.147885 1.010042,3.110779 0.740583,4.66304 -0.162721,1.472957 0.03725,2.985823 0.587588,4.3624 1.609888,-0.06764 0.301988,1.790049 -0.415994,2.126586 -1.140581,2.170209 -1.967718,4.560414 -2.004578,7.035349 -0.03537,2.081393 0.165422,4.203326 0.805502,6.188754 0.637709,1.79138 1.575272,3.497054 1.977547,5.359249 -0.04814,1.427 -0.284931,2.844661 -0.09243,4.26727 0.0058,1.209737 0.338082,2.827653 1.718453,3.134734 2.467142,0.496986 5.10285,-0.303862 7.463994,0.789872 1.780469,0.578078 3.576372,1.272645 5.476352,1.265967 z m -6.804433,-4.297359 c -1.576734,-0.432755 -0.705563,-3.670147 0.798293,-2.838735 0.629908,0.814607 0.402021,2.680715 -0.726279,2.856234 l -0.06817,-0.0166 z m -3.22333,-0.611923 c -1.450662,-0.01956 -0.560196,-3.371675 0.226437,-2.002868 0.11234,0.652376 0.446806,1.532267 -0.226437,2.002868 z m 9.597127,-2.139704 c -1.655983,-1.929576 -4.398494,-2.017079 -6.748173,-2.099004 -1.426019,-0.180579 -3.108381,-0.361141 -4.161656,0.653644 -1.248923,-0.26241 -0.750682,-1.62729 0.390212,-1.358338 2.16312,-0.363411 4.336714,0.177738 6.496371,0.288435 1.619995,0.295369 3.438505,0.637023 4.586191,1.912401 0.430717,0.598752 0.10358,1.151393 -0.562945,0.602862 z m -1.980221,-7.007666 c -1.593423,-0.145023 -3.243572,-1.409711 -3.233657,-3.116287 -1.073279,-0.06257 -1.226598,1.682078 -2.379658,1.804281 -2.380074,1.282309 -5.854603,0.06454 -6.63386,-2.601067 -0.485406,-1.650706 -0.954232,-3.689518 0.275782,-5.139746 1.695057,-1.784348 4.841741,-2.268648 6.791436,-0.610935 1.261456,0.627005 2.10186,2.058991 2.568423,3.123226 0.975376,-0.737015 1.819984,-2.054304 3.275057,-1.400368 2.119083,0.469213 4.220253,2.334454 4.037618,4.658788 -0.294266,1.982045 -2.239478,3.843447 -4.333056,3.328994 -0.122994,-0.01327 -0.245441,-0.03095 -0.368085,-0.04688 z m 1.91817,-1.266357 c 1.975306,-0.513625 2.452365,-3.648102 0.638419,-4.65339 -0.601291,-0.826301 -3.114094,-1.028854 -3.414949,-0.309954 1.757118,0.157098 2.971703,1.387528 2.461619,3.190875 -0.23061,0.766364 -2.195177,0.945407 -1.846215,1.595438 0.333451,-0.04036 1.834036,0.241259 2.161126,0.177031 z m -3.560351,-0.40552 c -0.136977,-0.378028 -0.110507,0.33908 0,0 z m -0.290348,-0.360927 c -0.467507,-0.314211 0.33323,0.446416 0,0 z M 20.278487,60.14263 c 1.709753,-0.460258 2.427061,-2.428875 2.210528,-4.044593 -0.05239,-1.50282 -1.204725,-3.093631 -2.805248,-3.115304 -1.764054,-0.705867 -3.812363,0.664195 -4.123678,2.474639 -0.474407,1.593708 0.03209,3.572162 1.575515,4.388841 0.89389,0.623059 2.174467,0.956072 3.142883,0.296417 z m -1.674515,-1.201206 c -1.821264,-0.171525 -2.681468,-2.461978 -1.230811,-3.722688 0.898856,-1.038189 3.077027,-1.063625 3.692431,0 1.105722,1.720828 0.719785,3.586769 -1.230811,3.722688 -0.432804,0.08097 -0.791144,-0.0094 -1.230809,0 z m -0.09669,-2.340599 c 1.585552,-0.853118 -1.008237,-2.116626 -0.672214,-0.142877 0.02615,0.446385 0.46893,0.517711 0.672214,0.142877 z m 7.617822,2.065016 c 1.441934,-0.619213 -0.708764,-2.230005 -0.933934,-0.595872 -0.181449,0.519701 0.535207,1.033177 0.933934,0.595872 z m -1.284708,-1.686518 c 0.430136,-0.321383 0.710318,-1.323337 0.11611,-0.438683 -0.03973,0.07214 -0.457108,0.659739 -0.11611,0.438683 z m 14.415098,18.878069 c 0.155176,-1.069648 -2.054927,-0.395716 -0.632944,0.01386 0.175389,0.194215 0.94493,0.713668 0.632944,-0.01386 z m -0.214259,-1.382615 c -0.89111,-1.407079 -2.805842,-1.563441 -3.790799,-2.872558 -1.549099,-0.803912 -1.639621,2.089644 -0.09381,1.95251 1.185602,0.637488 2.551296,0.876401 3.884609,0.920048 z m -0.03943,-2.156821 c -0.06743,-1.691091 -0.144981,-3.395742 0.102477,-5.076762 -0.326029,-1.198017 -2.277724,-2.367287 -3.160911,-1.677061 -0.242771,1.510695 -0.366875,3.126916 -1.289411,4.405461 -0.416648,1.662535 2.02545,1.383409 2.699737,2.498427 0.530384,0.480611 2.098053,1.430791 1.648108,-0.150065 z M 8.538678,72.229506 c 1.498228,-0.569668 3.192228,-0.441351 4.628501,-1.200933 0.158406,-1.814579 -2.227403,-0.568255 -3.058442,-0.08331 -0.343258,0.09398 -2.409984,1.390877 -1.570059,1.284243 z m 30.927941,-8.559184 c 0.213227,-1.49753 -2.738545,-1.860471 -3.019145,-0.88397 0.650335,0.731649 2.32113,1.355477 3.019243,0.996433 l -6e-5,-0.07016 z m 79.004021,-20.97838 c -0.0631,-0.463047 0.26008,0.555287 0,0 z" id="path248"></path></svg>